<svg height="800" viewBox="0 0 392.591 392.591" width="800" xmlns="http://www.w3.org/2000/svg"><path d="m207.35 258.844c0-38.271 31.16-69.366 69.366-69.366 8.986 0 17.519 1.745 25.471 4.913v-162.908c0-5.301-4.331-9.632-9.632-9.632h-214.627c-5.301 0-9.632 4.331-9.632 9.632v263.499c0 5.301 4.331 9.632 9.632 9.632h146.877c-10.861-12.153-17.455-28.121-17.455-45.77z" fill="#fff"/><path d="m263.463 123.927c-6.012 0-10.925-4.848-10.925-10.925 0-6.012 4.848-10.925 10.925-10.925h16.808v-19.394h-36.331c-6.012 0-10.925-4.848-10.925-10.925 0-6.012 4.848-10.925 10.925-10.925h36.331v-6.4c0-6.012-4.848-10.925-10.925-10.925h-168.404c-6.012 0-10.925 4.848-10.925 10.925v217.471c0 6.012 4.848 10.925 10.925 10.925h110.739c-2.78-7.499-4.396-15.58-4.396-24.048 0-38.271 31.16-69.366 69.366-69.366 1.228 0 2.457.065 3.62.129v-65.681h-16.808z" fill="#ffc10d"/><path d="m163.455 102.4c6.594 0 11.96-5.301 11.96-11.96s-5.43-11.96-11.96-11.96-11.96 5.43-11.96 11.96 5.431 11.96 11.96 11.96z" fill="#fff"/><path d="m201.338 172.154c0-3.168-1.681-6.077-4.396-7.564-3.814-2.069-7.822-3.814-11.96-5.172l-14.222 16.097c-4.202 4.655-12.218 4.655-16.291 0l-14.222-16.097c-4.202 1.422-8.21 3.103-11.96 5.172-2.715 1.487-4.396 4.396-4.396 7.564v18.941h77.64v-18.941z" fill="#fff"/><path d="m262.752 326.788v31.806l7.046-5.818c4.008-3.232 9.762-3.232 13.77 0l7.046 5.818v-31.806c-4.461.905-9.18 1.422-13.899 1.422-4.848.065-9.502-.517-13.963-1.422z" fill="#56ace0"/><path d="m276.651 211.329c-26.182 0-47.515 21.333-47.515 47.515s21.333 47.515 47.515 47.515 47.515-21.333 47.515-47.515c.13-26.181-21.204-47.515-47.515-47.515z" fill="#56ace0"/><g fill="#194f82"><path d="m163.455 124.186c18.618 0 33.745-15.127 33.745-33.745s-15.127-33.81-33.745-33.81-33.745 15.127-33.745 33.745 15.127 33.81 33.745 33.81zm0-45.77c6.594 0 11.96 5.43 11.96 11.96s-5.43 11.96-11.96 11.96-11.96-5.301-11.96-11.96c.001-6.659 5.431-11.96 11.96-11.96z"/><path d="m207.35 145.39c-7.37-4.008-15.321-7.046-23.661-8.986-3.943-.905-7.952.388-10.667 3.426l-10.602 11.96-10.602-11.96c-2.651-3.038-6.723-4.331-10.667-3.426-8.339 1.939-16.291 4.978-23.661 8.986-9.762 5.301-15.774 15.515-15.774 26.764v29.802c0 6.012 4.848 10.925 10.925 10.925h99.426c6.012 0 10.925-4.848 10.925-10.925v-29.802c.132-11.184-5.88-21.463-15.642-26.764zm-6.141 45.705h-77.511v-18.941c0-3.168 1.681-6.077 4.396-7.564 3.814-2.069 7.822-3.814 11.96-5.172l14.222 16.097c4.202 4.655 12.218 4.655 16.291 0l14.222-16.097c4.202 1.422 8.21 3.103 11.96 5.172 2.715 1.487 4.396 4.396 4.396 7.564v18.941z"/><path d="m185.177 245.786h-68.008c-6.012 0-10.925 4.848-10.925 10.925 0 6.012 4.848 10.925 10.925 10.925h68.008c6.012 0 10.925-4.848 10.925-10.925s-4.913-10.925-10.925-10.925z"/><path d="m323.973 208.226v-176.679c0-17.389-14.158-31.547-31.419-31.547h-214.626c-17.39 0-31.547 14.158-31.547 31.547v263.499c0 17.39 14.158 31.547 31.547 31.547h163.038v55.079c0 9.18 10.667 14.287 17.778 8.404l18.036-14.675 18.036 14.675c7.111 5.818 17.778.776 17.778-8.404v-63.418c20.105-12.154 33.616-34.133 33.616-59.345-.128-19.976-8.662-38.012-22.237-50.683zm-99.297 96.453h-146.748c-5.43 0-9.762-4.331-9.762-9.632v-263.5c0-5.301 4.331-9.632 9.632-9.632h214.562c5.301 0 9.632 4.331 9.632 9.632v162.909c-7.887-3.168-16.485-4.913-25.471-4.913-38.271 0-69.366 31.16-69.366 69.366.066 17.519 6.725 33.552 17.521 45.77zm66.068 53.915h-.065l-7.046-5.818c-4.008-3.232-9.762-3.232-13.77 0l-7.046 5.818v-31.806c4.461.905 9.18 1.422 13.964 1.422s9.438-.453 13.899-1.422v31.806zm-14.093-52.234c-26.182 0-47.515-21.333-47.515-47.515s21.333-47.515 47.515-47.515 47.515 21.333 47.515 47.515c.13 26.181-21.204 47.515-47.515 47.515z"/></g></svg>