<svg width="24" height="24" viewBox="0 0 24 24" fill="none" xmlns="http://www.w3.org/2000/svg">
<path fill-rule="evenodd" clip-rule="evenodd" d="M4 6V10H20V6H4ZM4 19V12H20V19H4ZM2 5.88235C2 4.87028 2.80434 4 3.85714 4H20.1429C21.1957 4 22 4.87028 22 5.88235V19.1176C22 20.1297 21.1957 21 20.1429 21H3.85714C2.80434 21 2 20.1297 2 19.1176V5.88235ZM6 7C5.44772 7 5 7.44772 5 8C5 8.55228 5.44772 9 6 9C6.55228 9 7 8.55228 7 8C7 7.44772 6.55228 7 6 7ZM9 7C8.44772 7 8 7.44772 8 8C8 8.55228 8.44772 9 9 9C9.55228 9 10 8.55228 10 8C10 7.44772 9.55228 7 9 7ZM11 8C11 7.44772 11.4477 7 12 7C12.5523 7 13 7.44772 13 8C13 8.55228 12.5523 9 12 9C11.4477 9 11 8.55228 11 8Z" fill="#010101"/>
</svg>
