<svg fill="none" height="800" viewBox="0 0 32 32" width="800" xmlns="http://www.w3.org/2000/svg"><path d="m30 14.4979c0-6.33998-6.2801-11.4979-14.0001-11.4979-7.71896 0-13.9999 5.15792-13.9999 11.4979 0 5.6838 4.98063 10.4438 11.7084 11.3439.456.0994 1.0765.3042 1.2335.6986.1412.3582.0923.9194.0451 1.2812 0 0-.1643.9998-.1997 1.2127-.0609.3583-.2812 1.401 1.2126.7638 1.4943-.6372 8.0627-4.8046 10.9999-8.2261 2.0289-2.2516 3.0002-4.5367 3.0002-7.0741z" fill="#2ccf54"/><g fill="#fff"><path d="m13.1553 11.4244h-.982c-.1505 0-.2729.1234-.2729.2751v6.1665c0 .1519.1224.2751.2729.2751h.982c.1506 0 .2727-.1232.2727-.2751v-6.1665c0-.1517-.1221-.2751-.2727-.2751z"/><path d="m19.9147 11.4244h-.982c-.1506 0-.2727.1234-.2727.2751v3.6636l-2.7955-3.8164c-.0517-.0784-.1355-.1172-.227-.1223h-.9817c-.1506 0-.273.1234-.273.2751v6.1665c0 .1519.1224.2751.273.2751h.9817c.1508 0 .2729-.1232.2729-.2751v-3.6625l2.799 3.8212c.0503.072.1356.1164.2233.1164h.982c.1508 0 .2727-.1232.2727-.2751v-6.1665c0-.1517-.1219-.2751-.2727-.2751z"/><path d="m10.7884 16.5969h-2.66827v-4.8971c0-.1522-.12211-.2757-.2724-.2757h-.98228c-.15056 0-.27268.1235-.27268.2757v6.1654c0 .1497.12158.2759.27241.2759h3.92322c.1505 0 .2721-.1237.2721-.2759v-.9927c0-.1522-.1216-.2756-.2721-.2756z"/><path d="m25.3372 12.9683c.1506 0 .2722-.1231.2722-.2756v-.9927c0-.1522-.1216-.2759-.2722-.2759h-3.9229c-.1507 0-.2727.126-.2727.2757v6.1657c0 .1492.1217.2756.2721.2756h3.9235c.1506 0 .2722-.1237.2722-.2756v-.993c0-.1519-.1216-.2756-.2722-.2756h-2.668v-1.0423h2.668c.1506 0 .2722-.1235.2722-.2757v-.9926c0-.1522-.1216-.2759-.2722-.2759h-2.668v-1.0421z"/></g></svg>